<svg xmlns="http://www.w3.org/2000/svg" width="70px" height="70px" viewBox="0 0 307.199 409.602">
<g>
	<g>
		<path fill="#242424" d="M153.602,0C68.773,0,0,68.773,0,153.602c0,34.55,11.398,66.398,30.652,92.074l122.95,163.926
			l122.949-163.926c19.25-25.676,30.648-57.524,30.648-92.074C307.199,68.773,238.426,0,153.602,0L153.602,0z M153.602,256
			c-56.551,0-102.402-45.852-102.402-102.398c0-56.551,45.852-102.403,102.402-102.403C210.148,51.199,256,97.051,256,153.602
			C256,210.148,210.152,256,153.602,256L153.602,256z M153.602,256"/>
	</g>
</g>
<g>
	<path fill="#717889" d="M219.87,183.505c-0.891-1.157-2.226-1.869-3.651-1.869H90.979c-1.424,0-2.76,0.712-3.65,1.869
		c-0.801,1.158-1.068,2.671-0.534,4.007c5.876,17.809,22.525,29.738,41.221,29.738h51.164c18.697,0,35.349-11.93,41.225-29.738
		C220.938,186.176,220.671,184.663,219.87,183.505z M179.18,208.347h-51.164c-12.731,0-24.216-6.945-30.271-17.808h111.707
		C203.398,201.402,191.912,208.347,179.18,208.347z"/>
	<path fill="#FDDB42" d="M220.671,150.473v26.711c0,2.493-1.959,4.452-4.452,4.452H90.98c-2.493,0-4.452-1.958-4.452-4.452v-26.711
		c0-20.211,9.556-38.909,24.425-51.463l42.289,23.238l0.355-0.178l42.647-23.061C211.115,111.564,220.671,130.262,220.671,150.473z"
		/>
	<path fill="#565B67" d="M186.863,187.512c-5.876,17.809-22.526,29.738-41.224,29.738h-25.582v-8.903h25.582
		c12.731,0,24.218-6.945,30.272-17.808h-55.854v-8.903h62.62c1.426,0,2.761,0.712,3.651,1.869
		C187.13,184.663,187.397,186.176,186.863,187.512z"/>
	<path fill="#FABF29" d="M187.136,150.473v26.711c0,2.493-1.959,4.452-4.452,4.452h-62.621V122.07L162.71,99.01
		C177.58,111.564,187.136,130.262,187.136,150.473z"/>
	<path fill="#FAA834" d="M220.671,172.732H86.528c-4.897,0-8.903,4.007-8.903,8.904s4.006,8.903,8.903,8.903h134.143
		c4.897,0,8.903-4.006,8.903-8.903S225.568,172.732,220.671,172.732z"/>
	<path fill="#F68741" d="M191.588,181.636c0,4.897-4.006,8.903-8.903,8.903h-67.073v-17.807h67.073
		C187.582,172.732,191.588,176.739,191.588,181.636z"/>
	<path fill="#FAA834" d="M171.85,86.188c-0.355-0.088-9.261-0.088-18.251-0.088c-8.992,0-17.983,0-18.251,0.088
		c-8.992,2.583-17.361,7.034-24.394,12.821l9.704,28.937c1.781,5.521,6.855,9.171,12.643,9.171h40.597
		c5.787,0,10.862-3.651,12.643-9.171l9.705-28.937C189.301,93.401,180.753,88.682,171.85,86.188z"/>
	<path fill="#F68741" d="M152.576,137.118h-20.3V86.1c8.991,0,17.896,0,18.251,0.088c8.903,2.494,17.451,7.213,24.396,12.821
		l-9.706,28.937C163.438,133.467,158.363,137.118,152.576,137.118z"/>
	<path fill="#FDDB42" d="M168.468,78.799c-4.542-2.671-9.705-4.007-14.869-4.007s-10.328,1.336-14.867,4.007
		c-4.808,2.849-7.39,8.458-6.232,14.067l8.546,44.251h25.105l8.549-44.251C175.857,87.257,173.274,81.648,168.468,78.799z"/>
	<path fill="#FABF29" d="M155.464,137.118h-12.553V74.792c5.164,0,10.327,1.336,14.869,4.007c4.807,2.849,7.39,8.458,6.232,14.067
		L155.464,137.118z"/>
</g>
</svg>